<svg width="228" height="719" viewBox="0 0 228 719" fill="none" xmlns="http://www.w3.org/2000/svg">
<rect y="60" width="228" height="659" fill="#161616"/>
<path fill-rule="evenodd" clip-rule="evenodd" d="M17 60H210V419V431.89C215.989 435.468 220 442.016 220 449.5C220 456.984 215.989 463.532 210 467.11V719H17V467.671C10.4613 464.245 6 457.394 6 449.5C6 441.606 10.4613 434.755 17 431.329V60ZM27 459C32.5228 459 37 454.523 37 449C37 443.477 32.5228 439 27 439C21.4772 439 17 443.477 17 449C17 454.523 21.4772 459 27 459ZM200 459C205.523 459 210 454.523 210 449C210 443.477 205.523 439 200 439C194.477 439 190 443.477 190 449C190 454.523 194.477 459 200 459Z" fill="url(#paint0_linear_380_484)"/>
<path fill-rule="evenodd" clip-rule="evenodd" d="M227.5 719V533.5C227.5 520.5 220.5 514 207.5 514H183.5C159.5 514 159.5 521.5 159.5 533.5V553C159.5 577.413 137.159 599.84 113.75 599.999C90.3407 599.84 68 577.413 68 553V533.5C68 522 68 514 44 514H20C7 514 0 520.5 0 533.5V719H227.5ZM204 542.5C209.247 542.5 213.5 546.753 213.5 552C213.5 557.247 209.247 561.5 204 561.5C198.753 561.5 194.5 557.247 194.5 552C194.5 546.753 198.753 542.5 204 542.5ZM23.5 542.5C18.2533 542.5 14 546.753 14 552C14 557.247 18.2533 561.5 23.5 561.5C28.7467 561.5 33 557.247 33 552C33 546.753 28.7467 542.5 23.5 542.5ZM213.5 644.046C213.5 638.882 209.381 634.681 204.25 634.549C199.119 634.681 195 638.882 195 644.046C195 649.209 199.119 653.41 204.25 653.542C209.381 653.41 213.5 649.209 213.5 644.046ZM33 644.049C33 638.886 28.8812 634.685 23.75 634.552C18.6188 634.685 14.5 638.886 14.5 644.049C14.5 649.212 18.6188 653.413 23.75 653.546C28.8812 653.413 33 649.212 33 644.049ZM123 644.052C123 638.889 118.881 634.688 113.75 634.555C108.619 634.688 104.5 638.889 104.5 644.052C104.5 649.215 108.619 653.416 113.75 653.549C118.881 653.416 123 649.215 123 644.052Z" fill="url(#paint1_linear_380_484)"/>
<defs>
<linearGradient id="paint0_linear_380_484" x1="113.5" y1="60" x2="113.5" y2="719" gradientUnits="userSpaceOnUse">
<stop offset="0.347834" stop-color="#161616"/>
<stop offset="0.551315" stop-color="#494949"/>
<stop offset="0.668269" stop-color="#494949"/>
<stop offset="0.851782" stop-color="#161616"/>
</linearGradient>
<linearGradient id="paint1_linear_380_484" x1="113.75" y1="811.5" x2="113.75" y2="514" gradientUnits="userSpaceOnUse">
<stop offset="0.317538" stop-color="#95928C"/>
<stop offset="0.317538" stop-color="#98958F"/>
<stop offset="0.323062" stop-color="#76736E"/>
<stop offset="0.335031" stop-color="#C1BFBA"/>
<stop offset="0.345159" stop-color="#999692"/>
<stop offset="1" stop-color="#97948F"/>
</linearGradient>
</defs>
</svg>
