<svg width="228" height="514" viewBox="0 0 228 514" fill="none" xmlns="http://www.w3.org/2000/svg">
<path fill-rule="evenodd" clip-rule="evenodd" d="M228 257C228 319.96 176.96 371 114 371C51.0395 371 0 319.96 0 257C0 194.04 51.0395 143 114 143C176.96 143 228 194.04 228 257ZM114 280C126.703 280 137 269.703 137 257C137 244.297 126.703 234 114 234C101.297 234 91 244.297 91 257C91 269.703 101.297 280 114 280ZM113.75 342.055C118.881 342.188 123 346.389 123 351.552C123 356.715 118.881 360.916 113.75 361.049C108.619 360.916 104.5 356.715 104.5 351.552C104.5 346.389 108.619 342.188 113.75 342.055ZM56.75 324.5C56.75 319.337 52.6311 315.136 47.5 315.003C42.3688 315.136 38.25 319.337 38.25 324.5C38.25 329.663 42.3688 333.864 47.5 333.997C52.6311 333.864 56.75 329.663 56.75 324.5ZM14 259.5C14 264.747 18.2533 269 23.5 269C28.7467 269 33 264.747 33 259.5C33 254.253 28.7467 250 23.5 250C18.2533 250 14 254.253 14 259.5ZM56.75 194.5C56.75 199.663 52.6311 203.864 47.5 203.997C42.3688 203.864 38.25 199.663 38.25 194.5C38.25 189.337 42.3688 185.136 47.5 185.003C52.6311 185.136 56.75 189.337 56.75 194.5ZM113.75 176.945C118.881 176.812 123 172.611 123 167.448C123 162.285 118.881 158.084 113.75 157.951C108.619 158.084 104.5 162.285 104.5 167.448C104.5 172.611 108.619 176.812 113.75 176.945ZM186.75 194.503C186.75 199.666 182.631 203.867 177.5 204C172.369 203.867 168.25 199.666 168.25 194.503C168.25 189.34 172.369 185.139 177.5 185.006C182.631 185.139 186.75 189.34 186.75 194.503ZM213.5 259.5C213.5 264.747 209.247 269 204 269C198.753 269 194.5 264.747 194.5 259.5C194.5 254.253 198.753 250 204 250C209.247 250 213.5 254.253 213.5 259.5ZM186.75 324.497C186.75 319.334 182.631 315.133 177.5 315C172.369 315.133 168.25 319.334 168.25 324.497C168.25 329.66 172.369 333.861 177.5 333.994C182.631 333.861 186.75 329.66 186.75 324.497Z" fill="url(#paint0_linear_379_481)"/>
<path fill-rule="evenodd" clip-rule="evenodd" d="M223 0L227.5 56.5V278C227.5 291 220.5 297.5 207.5 297.5H159.5V258.5C159.5 234.087 137.159 211.66 113.75 211.501C90.3407 211.66 68 234.087 68 258.5V297.5H20C7 297.5 0 291 0 278V56.5L4.5 0H113.5H114H223ZM204 269C209.247 269 213.5 264.747 213.5 259.5C213.5 254.253 209.247 250 204 250C198.753 250 194.5 254.253 194.5 259.5C194.5 264.747 198.753 269 204 269ZM23.5 269C18.2533 269 14 264.747 14 259.5C14 254.253 18.2533 250 23.5 250C28.7467 250 33 254.253 33 259.5C33 264.747 28.7467 269 23.5 269ZM186.75 194.503C186.75 199.666 182.631 203.867 177.5 204C172.369 203.867 168.25 199.666 168.25 194.503C168.25 189.34 172.369 185.139 177.5 185.006C182.631 185.139 186.75 189.34 186.75 194.503ZM56.75 194.5C56.75 199.663 52.6312 203.864 47.5 203.997C42.3688 203.864 38.25 199.663 38.25 194.5C38.25 189.337 42.3688 185.136 47.5 185.003C52.6312 185.136 56.75 189.337 56.75 194.5ZM123 167.448C123 172.611 118.881 176.812 113.75 176.945C108.619 176.812 104.5 172.611 104.5 167.448C104.5 162.285 108.619 158.084 113.75 157.951C118.881 158.084 123 162.285 123 167.448Z" fill="url(#paint1_linear_379_481)"/>
<defs>
<linearGradient id="paint0_linear_379_481" x1="114" y1="143" x2="114" y2="371" gradientUnits="userSpaceOnUse">
<stop stop-color="#474543"/>
<stop offset="1" stop-color="#999590"/>
</linearGradient>
<linearGradient id="paint1_linear_379_481" x1="113.75" y1="0" x2="113.75" y2="297.5" gradientUnits="userSpaceOnUse">
<stop stop-color="#98958F"/>
<stop offset="0.180631" stop-color="#95928C"/>
<stop offset="0.186713" stop-color="#76736E"/>
<stop offset="0.210573" stop-color="#C1BFBA"/>
<stop offset="0.214162" stop-color="#999692"/>
<stop offset="1" stop-color="#97948F"/>
</linearGradient>
</defs>
</svg>
